<?xml version="1.0" encoding="UTF-8" standalone="no"?>
<!DOCTYPE svg PUBLIC "-//W3C//DTD SVG 20010904//EN"
"http://www.w3.org/TR/2001/REC-SVG-20010904/DTD/svg10.dtd">
<!-- Created with Inkscape (http://www.inkscape.org/) -->
<svg
   id="svg1"
   sodipodi:version="0.32"
   inkscape:version="0.37"
   width="48pt"
   height="48pt"
   sodipodi:docbase="/usr/share/themes/Lila/gtk-2.0"
   sodipodi:docname="stock_open.svg"
   xmlns="http://www.w3.org/2000/svg"
   xmlns:inkscape="http://www.inkscape.org/namespaces/inkscape"
   xmlns:sodipodi="http://sodipodi.sourceforge.net/DTD/sodipodi-0.dtd"
   xmlns:xlink="http://www.w3.org/1999/xlink">
  <defs
     id="defs3">
    <linearGradient
       id="linearGradient866">
      <stop
         style="stop-color:#faf8fd;stop-opacity:1;"
         offset="0.00000000"
         id="stop867" />
      <stop
         style="stop-color:#d9cce6;stop-opacity:1;"
         offset="1.00000000"
         id="stop868" />
    </linearGradient>
    <linearGradient
       id="linearGradient584">
      <stop
         style="stop-color:#ffffff;stop-opacity:1;"
         offset="0.00000000"
         id="stop585" />
      <stop
         style="stop-color:#ffffff;stop-opacity:0;"
         offset="1.00000000"
         id="stop586" />
    </linearGradient>
    <linearGradient
       id="linearGradient578">
      <stop
         style="stop-color:#d9cce6;stop-opacity:1;"
         offset="0.00000000"
         id="stop579" />
      <stop
         style="stop-color:#73667f;stop-opacity:1;"
         offset="1.00000000"
         id="stop580" />
    </linearGradient>
    <linearGradient
       xlink:href="#linearGradient584"
       id="linearGradient581"
       x1="-0.00684932"
       y1="0.00775194"
       x2="0.97945207"
       y2="1.00000000" />
    <linearGradient
       xlink:href="#linearGradient584"
       id="linearGradient583"
       x1="0.01094890"
       y1="0.01030928"
       x2="1.01459849"
       y2="0.96907216" />
    <linearGradient
       xlink:href="#linearGradient584"
       id="linearGradient860"
       x1="-0.02500000"
       y1="0.03100775"
       x2="0.97500002"
       y2="0.97674417" />
    <linearGradient
       xlink:href="#linearGradient578"
       id="linearGradient861"
       x1="0.00000000"
       y1="0.02325581"
       x2="0.98611110"
       y2="0.97674417" />
    <linearGradient
       xlink:href="#linearGradient578"
       id="linearGradient862"
       x1="-0.00000000"
       y1="0.00775194"
       x2="1.00000000"
       y2="0.99224806" />
    <linearGradient
       xlink:href="#linearGradient866"
       id="linearGradient869"
       x1="-0.00684932"
       y1="0.00775194"
       x2="0.97945207"
       y2="1.00000000" />
  </defs>
  <sodipodi:namedview
     id="base"
     pagecolor="#ffffff"
     bordercolor="#666666"
     borderopacity="1.0"
     inkscape:pageopacity="0.0"
     inkscape:pageshadow="2"
     inkscape:zoom="7.97947193"
     inkscape:cx="25.8249646"
     inkscape:cy="23.1335683"
     inkscape:window-width="640"
     inkscape:window-height="516"
     inkscape:window-x="152"
     inkscape:window-y="77" />
  <path
     d="M 9.39075 55.205208 C 0.89855006 51.574681 -0.36004585 20.648788 1.3933586 7.6139481 C 1.9560546 3.4303383 14.057062 2.1076863 17.91274 2.6320469 C 19.519886 2.8506692 19.491637 10.134394 21.321441 10.104961 C 30.373369 9.9595671 42.520309 -0.59458717 48.984616 3.0253775 C 54.538354 6.1354603 58.578829 29.067876 53.966519 35.146332 C 45.380913 46.461155 18.379181 59.04783 9.39075 55.205208 z "
     style="font-size:12;opacity:0.302675;fill-rule:evenodd;stroke-width:18.75;stroke-linecap:round;stroke-linejoin:round;"
     id="path574" />
  <path
     d="M 10.262009 51.643477 C 2.5657216 48.353231 1.4250797 20.32595 3.0141731 8.5128357 C 3.5241833 4.7213446 14.490959 3.5226611 17.985253 3.9978755 C 19.441764 4.196006 19.416165 10.797045 21.074465 10.77037 C 29.277978 10.638605 40.286413 1.0736552 46.144836 4.3543392 C 51.178035 7.1729219 54.839806 27.955937 50.659798 33.464673 C 42.878898 43.718983 18.407975 55.12594 10.262009 51.643477 z "
     style="font-size:12;fill:url(#linearGradient862);fill-rule:evenodd;stroke:#261933;stroke-width:1.875;stroke-linecap:round;stroke-linejoin:round;stroke-dasharray:none;"
     id="path562" />
  <path
     d="M 10.38076 49.148444 C 5.5357957 45.257566 3.0684604 18.71713 5.2717286 9.4633704 C 6.0388679 6.2413177 16.800662 5.674784 17.153469 6.8494794 C 14.160848 6.9776946 9.6635281 9.8146723 8.9550122 12.790296 C 6.6930676 22.290483 9.7147281 46.555207 10.38076 49.148444 z "
     style="font-size:12;opacity:0.7;fill:url(#linearGradient860);fill-rule:evenodd;stroke:none;stroke-width:1pt;"
     id="path567" />
  <path
     d="M 22.975426 12.909155 C 33.894692 10.935909 41.995267 4.4219959 44.243767 6.2554085 C 44.852251 6.7791344 36.353799 11.548911 31.173884 13.265726 C 29.422758 13.846028 22.453208 13.002519 22.975426 12.909155 z "
     style="font-size:12;opacity:0.699936;fill:url(#linearGradient583);fill-rule:evenodd;stroke:none;stroke-width:1pt;"
     id="path568" />
  <path
     d="M 10.902762 51.874847 C 8.8204506 51.541507 7.7659005 28.952067 13.087154 23.780972 C 21.656597 15.453223 43.481252 10.323756 52.574956 12.52256 C 57.148002 13.628416 54.621882 28.780732 50.390566 33.895248 C 41.379148 44.906588 19.477261 53.145166 10.902762 51.874847 z "
     style="font-size:12;fill:url(#linearGradient861);fill-rule:evenodd;stroke:#261933;stroke-width:1.875;stroke-linecap:round;stroke-linejoin:round;stroke-dasharray:none;"
     id="path576"
     sodipodi:nodetypes="ccccc" />
  <path
     d="M 12.521049 48.174138 C 9.7391451 42.958405 12.395738 28.23969 14.537534 25.63107 C 23.910433 15.605174 48.817955 14.126251 50.785068 15.056672 C 35.233168 17.373902 27.902926 19.521763 18.814996 28.482673 C 14.775249 33.116599 11.997324 41.021947 12.521049 48.174138 z "
     style="font-size:12;opacity:0.7;fill:url(#linearGradient581);fill-rule:evenodd;stroke:none;stroke-width:1.25;"
     id="path577"
     sodipodi:nodetypes="ccccc" />
  <path
     d="M 24.282612 51.383354 C 24.832913 53.027428 47.62142 60.420018 49.117648 59.179466 C 50.456932 58.057368 60.478178 24.658046 59.807187 23.333457 C 59.109717 21.873101 35.989208 18.235606 34.891773 19.234448 C 33.539974 20.472014 23.704653 49.496989 24.282612 51.383354 z "
     style="font-size:12;opacity:0.302675;fill-rule:evenodd;stroke-width:12.5;"
     id="path639" />
  <path
     d="M 24.930654 49.840572 C 25.434496 51.345767 46.29795 58.113876 47.667786 56.97812 C 48.893935 55.95081 58.068649 25.372849 57.454339 24.160127 C 56.815786 22.823131 35.64835 19.492935 34.643623 20.407401 C 33.406015 21.540427 24.401518 48.113557 24.930654 49.840572 z "
     style="font-size:12;fill:url(#linearGradient869);fill-rule:evenodd;stroke:#261933;stroke-width:1.875;stroke-dasharray:none;"
     id="path634" />
  <path
     d="M 26.350135 48.430636 C 26.132398 47.879012 34.78391 22.230985 35.592727 21.702056 C 36.603585 21.012203 52.944754 24.066056 53.16198 24.616386 C 53.361087 25.120784 40.412531 22.765511 37.531774 25.342274 C 32.006734 30.145489 26.54873 48.933767 26.350135 48.430636 z "
     style="font-size:12;opacity:0.699936;fill:url(#linearGradient583);fill-rule:evenodd;stroke:#ffffff;stroke-width:0.0666133pt;"
     id="path640" />
</svg>
