<?xml version="1.0" encoding="UTF-8" standalone="no"?>
<!DOCTYPE svg PUBLIC "-//W3C//DTD SVG 20010904//EN"
"http://www.w3.org/TR/2001/REC-SVG-20010904/DTD/svg10.dtd">
<!-- Created with Inkscape (http://www.inkscape.org/) -->
<svg
   id="svg1"
   sodipodi:version="0.32"
   inkscape:version="0.37"
   width="48pt"
   height="48pt"
   sodipodi:docbase="/home/dan/Projects/Lila-gtk/gtk-2.0"
   sodipodi:docname="stock_save_as.svg"
   xmlns="http://www.w3.org/2000/svg"
   xmlns:inkscape="http://www.inkscape.org/namespaces/inkscape"
   xmlns:sodipodi="http://sodipodi.sourceforge.net/DTD/sodipodi-0.dtd"
   xmlns:xlink="http://www.w3.org/1999/xlink">
  <defs
     id="defs3">
    <linearGradient
       id="linearGradient916">
      <stop
         style="stop-color:#cccccc;stop-opacity:1;"
         offset="0.00000000"
         id="stop917" />
      <stop
         style="stop-color:#7f7f7f;stop-opacity:1;"
         offset="1.00000000"
         id="stop918" />
    </linearGradient>
    <linearGradient
       id="linearGradient866">
      <stop
         style="stop-color:#ffffff;stop-opacity:1;"
         offset="0.00000000"
         id="stop867" />
      <stop
         style="stop-color:#d9d1e1;stop-opacity:1;"
         offset="1.00000000"
         id="stop868" />
    </linearGradient>
    <linearGradient
       id="linearGradient584">
      <stop
         style="stop-color:#ffffff;stop-opacity:1;"
         offset="0.00000000"
         id="stop585" />
      <stop
         style="stop-color:#ffffff;stop-opacity:0;"
         offset="1.00000000"
         id="stop586" />
    </linearGradient>
    <linearGradient
       id="linearGradient578">
      <stop
         style="stop-color:#d9cce6;stop-opacity:1;"
         offset="0.00000000"
         id="stop579" />
      <stop
         style="stop-color:#73667f;stop-opacity:1;"
         offset="1.00000000"
         id="stop580" />
    </linearGradient>
    <linearGradient
       xlink:href="#linearGradient584"
       id="linearGradient581"
       x1="0.00649351"
       y1="0.00000000"
       x2="0.96753246"
       y2="0.97674417" />
    <linearGradient
       xlink:href="#linearGradient584"
       id="linearGradient583"
       x1="-0.03076923"
       y1="0.02325581"
       x2="0.97692305"
       y2="1.03100777" />
    <linearGradient
       xlink:href="#linearGradient584"
       id="linearGradient860"
       x1="-0.01219512"
       y1="0.00775194"
       x2="0.98780489"
       y2="0.99224806" />
    <linearGradient
       xlink:href="#linearGradient578"
       id="linearGradient861"
       x1="0.01562500"
       y1="0.01550388"
       x2="0.98437500"
       y2="0.97674417" />
    <linearGradient
       xlink:href="#linearGradient866"
       id="linearGradient862"
       x1="0.00617284"
       y1="0.01550388"
       x2="1.00000000"
       y2="0.96899223" />
    <linearGradient
       xlink:href="#linearGradient916"
       id="linearGradient869"
       x1="0.00641026"
       y1="0.01550388"
       x2="0.97435898"
       y2="0.95348835" />
    <linearGradient
       xlink:href="#linearGradient578"
       id="linearGradient915"
       x1="0.97727275"
       y1="0.98449612"
       x2="-0.01136364"
       y2="0.01550388" />
  </defs>
  <sodipodi:namedview
     id="base"
     pagecolor="#ffffff"
     bordercolor="#666666"
     borderopacity="1.0"
     inkscape:pageopacity="0.0"
     inkscape:pageshadow="2"
     inkscape:zoom="5.64233871"
     inkscape:cx="26.4570194"
     inkscape:cy="23.7684994"
     inkscape:window-width="640"
     inkscape:window-height="516"
     inkscape:window-x="256"
     inkscape:window-y="321" />
  <path
     d="M 4.8234607 48.915429 C 6.1255243 50.720611 44.958429 60.883183 46.676028 59.951927 C 48.313 58.927817 58.426564 13.790923 57.282519 12.079437 C 56.39015 10.681181 14.977866 5.3148164 13.709981 6.4895865 C 12.388767 7.8630635 3.740827 47.215749 4.8234607 48.915429 z "
     style="font-size:12;opacity:0.302675;fill-rule:evenodd;stroke-width:12.5;"
     id="path1382" />
  <path
     d="M 1.9251389 45.49014 C 3.2272012 47.29532 42.060108 57.457894 43.777706 56.526636 C 45.414677 55.502527 55.528242 10.365634 54.384195 8.6541477 C 53.491828 7.2558915 12.079544 1.8895267 10.811659 3.0642954 C 9.4904453 4.4377951 0.84250377 43.790458 1.9251389 45.49014 z "
     style="font-size:12;fill:url(#linearGradient861);fill-rule:evenodd;stroke:#261933;stroke-width:1.875;stroke-dasharray:none;"
     id="path1289" />
  <path
     d="M 9.2349703 47.496834 C 9.9037983 42.002457 11.146072 37.081422 12.531576 32.160386 C 21.704714 34.023637 30.591287 36.173667 39.621089 38.61026 C 38.57 44.009045 37.375574 49.55127 35.894479 54.663383 C 26.530263 53.038953 18.169287 50.411176 9.2349703 47.496834 z "
     style="font-size:12;fill:#595161;fill-rule:evenodd;stroke:#261933;stroke-width:1.25;stroke-dasharray:none;"
     id="path1294" />
  <path
     d="M 17.691538 3.7809513 C 15.876029 10.183093 14.06052 17.445129 13.248252 24.277265 C 22.278054 26.80945 32.74121 29.054965 41.914453 30.727139 C 43.921041 23.226175 45.640958 15.295205 46.930974 7.6509062 C 37.853323 6.0742401 26.769084 4.2109457 17.691538 3.7809513 z "
     style="font-size:12;fill:url(#linearGradient862);fill-rule:evenodd;stroke:#261933;stroke-width:1.25;stroke-dasharray:none;"
     id="path1295" />
  <path
     d="M 14.948882 36.388038 C 14.273205 39.023087 13.597526 41.658241 12.921847 44.29329 C 13.935313 44.56352 14.73388 44.833855 15.747343 45.104084 C 16.287907 42.536592 17.186809 39.682323 17.79904 37.11483 C 16.92069 36.777044 15.970567 36.582488 14.948882 36.388038 z M 9.9126543 47.145951 C 10.563671 42.057971 11.887937 37.635921 12.968958 32.90628 C 19.860747 34.237084 27.612549 36.009148 34.43267 37.984961 C 33.423316 42.845709 31.917811 47.960748 30.621786 52.964833 C 23.658329 51.503026 16.804445 49.682773 9.9126543 47.145951 z "
     style="font-size:12;fill:url(#linearGradient869);fill-rule:evenodd;stroke:none;stroke-width:6.25;stroke-dasharray:none;stroke-opacity:1;"
     id="path1306"
     sodipodi:nodetypes="cccccccccc" />
  <path
     d="M 4.218449 44.200123 C 3.8102603 43.154093 10.487574 7.335464 12.818351 5.3574279 C 15.142489 3.3633498 50.548609 9.5033043 50.944361 10.517401 C 51.313027 11.462149 23.452982 4.9576907 15.541615 10.660629 C 7.877607 16.185253 4.5746788 45.112937 4.218449 44.200123 z "
     style="font-size:12;opacity:0.7;fill:url(#linearGradient581);fill-rule:evenodd;stroke:none;stroke-width:1pt;"
     id="path1310" />
  <path
     d="M 10.717481 45.908892 C 10.630428 45.709909 12.822717 34.255528 13.584186 33.869049 C 14.720855 33.243961 22.742464 35.391248 22.828991 35.589072 C 22.909618 35.773406 16.458796 34.290834 14.695983 35.614367 C 12.906506 36.975313 10.797686 46.092171 10.717481 45.908892 z "
     style="font-size:12;opacity:0.7;fill:url(#linearGradient583);fill-rule:evenodd;stroke:none;stroke-width:1pt;"
     id="path1315"
     sodipodi:nodetypes="ccccc" />
  <path
     d="M 13.749924 45.060135 C 13.707346 44.953687 15.52686 46.130406 15.899954 45.705142 C 16.721286 44.768827 17.288302 40.862836 17.3332 40.975185 C 17.383789 41.101764 17.179747 45.71252 16.384237 46.619432 C 15.985324 47.074205 13.802938 45.192508 13.749924 45.060135 z "
     style="font-size:12;opacity:0.990000;fill:url(#linearGradient860);fill-rule:evenodd;stroke:none;stroke-width:1pt;"
     id="path1316" />
  <path
     d="M 19.55616 10.459857 C 26.753698 11.585038 35.055546 13.29431 41.915824 15.22691 C 42.358687 15.351697 41.925731 16.704108 41.465475 16.632228 C 34.32443 15.51611 26.028167 13.611016 19.112244 11.662712 C 18.725133 11.553631 19.152504 10.396829 19.55616 10.459857 z "
     style="font-size:12;opacity:0.25;fill-rule:evenodd;stroke-width:1pt;"
     id="path1379" />
  <path
     d="M 18.745158 14.468182 C 25.942695 15.593258 34.244437 17.30253 41.104819 19.235238 C 41.547578 19.360024 41.114726 20.712434 40.654473 20.640556 C 33.513428 19.524332 25.217058 17.619344 18.301241 15.671039 C 17.914024 15.561957 18.341499 14.405052 18.745158 14.468182 z "
     style="font-size:12;opacity:0.25;fill-rule:evenodd;stroke-width:1pt;"
     id="path1380" />
  <path
     d="M 17.860379 18.69067 C 25.057915 19.81564 33.359765 21.524913 40.220041 23.45762 C 40.662905 23.582405 40.229842 24.934815 39.769799 24.862938 C 32.628754 23.746713 24.332387 21.841726 17.416462 19.89342 C 17.02935 19.784338 17.456826 18.627433 17.860379 18.69067 z "
     style="font-size:12;opacity:0.25;fill-rule:evenodd;stroke-width:1pt;"
     id="path1381" />
  <g
     id="g762"
     transform="matrix(0.787910,0.000000,0.000000,0.787910,14.70284,-1.519529)">
    <sodipodi:namedview
       id="namedview763"
       pagecolor="#ffffff"
       bordercolor="#666666"
       borderopacity="1.0"
       inkscape:pageopacity="0.0"
       inkscape:pageshadow="2"
       inkscape:zoom="6.94653375"
       inkscape:cx="25.5516764"
       inkscape:cy="23.2641839"
       inkscape:window-width="640"
       inkscape:window-height="500"
       inkscape:window-x="163"
       inkscape:window-y="150" />
    <defs
       id="defs1420">
      <linearGradient
         id="linearGradient1439">
        <stop
           style="stop-color:#ffffff;stop-opacity:1;"
           offset="0"
           id="stop1440" />
        <stop
           style="stop-color:#ffffff;stop-opacity:0;"
           offset="1"
           id="stop1441" />
      </linearGradient>
      <linearGradient
         id="linearGradient1432">
        <stop
           style="stop-color:#7f7f7f;stop-opacity:1;"
           offset="0"
           id="stop1433" />
        <stop
           style="stop-color:#e6e6e6;stop-opacity:1;"
           offset="1"
           id="stop1434" />
      </linearGradient>
      <linearGradient
         id="linearGradient1428">
        <stop
           style="stop-color:#f50000;stop-opacity:1;"
           offset="0.00000000"
           id="stop1429" />
        <stop
           style="stop-color:#a90000;stop-opacity:1;"
           offset="1.00000000"
           id="stop1430" />
      </linearGradient>
      <linearGradient
         id="linearGradient1422">
        <stop
           style="stop-color:#d7a600;stop-opacity:1;"
           offset="0.00000000"
           id="stop1423" />
        <stop
           style="stop-color:#fff300;stop-opacity:1;"
           offset="1.00000000"
           id="stop1424" />
      </linearGradient>
      <linearGradient
         x1="0.64516127"
         y1="0.66406250"
         x2="0.32258064"
         y2="0.32031250"
         id="linearGradient1425"
         xlink:href="#linearGradient1422" />
      <linearGradient
         x1="0.01923077"
         y1="0.00781250"
         x2="0.98076922"
         y2="0.98437500"
         id="linearGradient1427"
         xlink:href="#linearGradient1428" />
      <linearGradient
         x1="0.98101264"
         y1="0.92187500"
         x2="0.01898734"
         y2="0.02343750"
         id="linearGradient1435"
         xlink:href="#linearGradient1432" />
      <linearGradient
         x1="0.015748"
         y1="0.023437"
         x2="0.984252"
         y2="0.984375"
         id="linearGradient1438"
         xlink:href="#linearGradient1439" />
      <linearGradient
         id="linearGradient1443"
         xlink:href="#linearGradient1439" />
    </defs>
    <path
       d="M 9.6825261 55.573998 C 10.935623 56.69746 16.630724 55.396696 18.919217 53.296405 C 32.531226 40.803584 49.168722 25.0385 57.384129 11.794783 C 58.953677 9.2645422 50.788505 4.0572676 48.273973 5.9744273 C 35.520595 15.698035 22.620476 32.527802 11.580501 46.716925 C 9.7566964 49.06099 8.4893852 54.504297 9.6825261 55.573998 z "
       style="font-size:12;opacity:0.3;fill:#3f3f19;fill-rule:evenodd;stroke-width:12.5;"
       id="path1442" />
    <path
       d="M 7.5314734 53.929102 C 8.7845708 55.052565 14.479671 53.7518 16.768164 51.651509 C 30.380174 39.158689 47.01767 23.393603 55.233067 10.149887 C 56.802626 7.6196444 48.637454 2.4123812 46.122921 4.3295397 C 33.369544 14.053138 20.469423 30.882904 9.4294481 45.072029 C 7.6056437 47.416094 6.3383211 52.859401 7.5314734 53.929102 z "
       style="font-size:12;fill:url(#linearGradient1425);fill-rule:evenodd;stroke:#3f3f19;stroke-width:1.875;stroke-dasharray:none;"
       id="path1421" />
    <path
       d="M 41.346506 9.2009518 C 41.439595 10.154589 49.478978 15.829917 50.519825 15.717165 C 50.868337 15.7006 54.823742 9.8552351 54.79029 9.4540298 C 54.570773 7.2015545 50.158592 4.5909111 47.388305 4.5509508 C 45.813304 4.5279734 41.317229 8.9326982 41.346506 9.2009518 z "
       style="font-size:12;fill:url(#linearGradient1427);fill-rule:evenodd;stroke-width:1pt;"
       id="path1426" />
    <path
       d="M 37.409915 13.013467 C 37.508561 14.024174 46.029512 20.039469 47.132666 19.919984 C 47.502023 19.902457 50.799721 15.854284 50.764135 15.429033 C 50.531474 13.041576 44.317495 8.93676 41.397917 9.0691765 C 40.798455 9.0874521 37.378916 12.729182 37.409915 13.013467 z "
       style="font-size:12;fill:url(#linearGradient1435);fill-rule:evenodd;stroke-width:1pt;stroke:#3f3f19;stroke-opacity:1;"
       id="path1431" />
    <ellipse
       cx="152.361847"
       cy="565.562134"
       rx="26.788887"
       ry="26.788879"
       transform="matrix(0.106874,0.000000,0.000000,0.106874,-8.278306,-7.108241)"
       style="font-size:12;fill:#3f3f19;fill-rule:evenodd;stroke-width:1pt;"
       id="path1436" />
    <path
       d="M 9.4294481 49.50056 C 14.917107 39.734202 33.110801 17.458035 46.755722 5.8478558 C 48.252067 4.4254061 52.911878 7.4694875 52.955587 8.1253725 C 52.996193 8.7347676 48.470625 8.2541551 47.008794 9.6437308 C 33.961841 22.045921 14.086803 42.968316 9.4294481 49.50056 z "
       style="font-size:12;opacity:0.990000;fill:url(#linearGradient1438);fill-rule:evenodd;stroke:none;stroke-width:0.106874pt;"
       id="path1437" />
  </g>
</svg>
