<?xml version="1.0" encoding="UTF-8" standalone="no"?>
<svg
   xmlns:dc="http://purl.org/dc/elements/1.1/"
   xmlns:cc="http://creativecommons.org/ns#"
   xmlns:rdf="http://www.w3.org/1999/02/22-rdf-syntax-ns#"
   xmlns:svg="http://www.w3.org/2000/svg"
   xmlns="http://www.w3.org/2000/svg"
   xmlns:sodipodi="http://sodipodi.sourceforge.net/DTD/sodipodi-0.dtd"
   xmlns:inkscape="http://www.inkscape.org/namespaces/inkscape"
   enable-background="new 0 0 55.125 55"
   height="55px"
   version="1.1"
   viewBox="0 0 55.125 55"
   width="55.125px"
   x="0px"
   xml:space="preserve"
   y="0px"
   id="svg2"
   sodipodi:version="0.32"
   inkscape:version="0.46"
   sodipodi:docname="add_rollover.svg"
   inkscape:output_extension="org.inkscape.output.svg.inkscape"><metadata
     id="metadata10"><rdf:RDF><cc:Work
         rdf:about=""><dc:format>image/svg+xml</dc:format><dc:type
           rdf:resource="http://purl.org/dc/dcmitype/StillImage" /></cc:Work></rdf:RDF></metadata><defs
     id="defs8"><inkscape:perspective
       sodipodi:type="inkscape:persp3d"
       inkscape:vp_x="0 : 27.5 : 1"
       inkscape:vp_y="0 : 1000 : 0"
       inkscape:vp_z="55.125 : 27.5 : 1"
       inkscape:persp3d-origin="27.5625 : 18.333333 : 1"
       id="perspective12" /></defs><sodipodi:namedview
     inkscape:window-height="949"
     inkscape:window-width="1280"
     inkscape:pageshadow="2"
     inkscape:pageopacity="1"
     guidetolerance="10.0"
     gridtolerance="10.0"
     objecttolerance="10.0"
     borderopacity="1.0"
     bordercolor="#666666"
     pagecolor="#535a5a"
     id="base"
     showgrid="false"
     inkscape:zoom="8.9818182"
     inkscape:cx="21.717357"
     inkscape:cy="27.5"
     inkscape:window-x="0"
     inkscape:window-y="25"
     inkscape:current-layer="svg2" /><g
     display="block"
     id="list-add"
     style="fill:#ffffff;fill-opacity:1">
	<path
   d="M43.467,11.644c-8.789-8.79-23.035-8.786-31.818-0.002   c-8.791,8.791-8.792,23.033-0.002,31.823c8.79,8.789,23.031,8.788,31.822-0.003C52.252,34.678,52.257,20.433,43.467,11.644z    M30.768,38.767c-0.002,1.774-1.438,3.216-3.214,3.214c-0.889,0.001-1.693-0.359-2.275-0.941c-0.582-0.581-0.94-1.385-0.94-2.27   l0-8.146h-8.146c-0.886-0.001-1.689-0.359-2.271-0.94c-0.582-0.583-0.942-1.388-0.942-2.276c0-1.773,1.439-3.213,3.217-3.211h8.143   v-8.143c-0.003-1.776,1.438-3.217,3.212-3.217c1.774,0,3.218,1.438,3.215,3.215l0.001,8.145l8.146,0.001   c1.775-0.005,3.212,1.438,3.213,3.213c0.002,1.775-1.441,3.214-3.215,3.215h-8.143V38.767z"
   display="inline"
   fill="#FFFFFF"
   id="path5"
   style="fill:#ffffff;fill-opacity:1" />
</g></svg>